<svg width="45" height="41" viewBox="0 0 45 41" fill="none" xmlns="http://www.w3.org/2000/svg">
<rect x="0.5" y="0.5" width="44" height="40" rx="9.5" fill="#96A7C9" fill-opacity="0.5" stroke="#3D3D3D"/>
<path d="M23 16C26.2216 16 28.8333 13.3884 28.8333 10.1667C28.8333 6.94505 26.2216 4.33337 23 4.33337C19.7783 4.33337 17.1666 6.94505 17.1666 10.1667C17.1666 13.3884 19.7783 16 23 16Z" fill="#2F88FF" stroke="white" stroke-width="3" stroke-linecap="round" stroke-linejoin="round"/>
<path d="M6.33337 35.1667C6.33337 27.8029 13.0491 21.8334 21.3334 21.8334" stroke="white" stroke-width="3" stroke-linecap="round" stroke-linejoin="round"/>
<path d="M29.5417 24.3334C27.7698 24.3334 26.3334 26.0072 26.3334 28.072C26.3334 31.8106 30.125 35.2095 32.1667 36C34.2084 35.2095 38 31.8106 38 28.072C38 26.0072 36.5636 24.3334 34.7917 24.3334C33.7066 24.3334 32.7473 24.9611 32.1667 25.9219C31.5861 24.9611 30.6268 24.3334 29.5417 24.3334Z" fill="#2F88FF" stroke="white" stroke-width="3" stroke-linecap="round" stroke-linejoin="round"/>
</svg>

