<svg width="45" height="41" viewBox="0 0 45 41" fill="none" xmlns="http://www.w3.org/2000/svg">
<rect x="0.5" y="0.5" width="44" height="40" rx="9.5" fill="#96A7C9" fill-opacity="0.5" stroke="#3D3D3D"/>
<path d="M22.9999 6.83337C17.5231 6.83337 13.0833 11.2732 13.0833 16.75V30.9167H32.9166V16.75C32.9166 11.2732 28.4768 6.83337 22.9999 6.83337Z" fill="#2F88FF"/>
<path d="M13.0833 30.9167V16.75C13.0833 11.2732 17.5231 6.83337 22.9999 6.83337C28.4768 6.83337 32.9166 11.2732 32.9166 16.75V30.9167M8.83325 30.9167H37.1666" stroke="white" stroke-width="3" stroke-linecap="round" stroke-linejoin="round"/>
<path d="M22.9999 35.1666C24.9559 35.1666 26.5416 33.581 26.5416 31.625V30.9166H19.4583V31.625C19.4583 33.581 21.0439 35.1666 22.9999 35.1666Z" fill="#2F88FF" stroke="white" stroke-width="3" stroke-linecap="round" stroke-linejoin="round"/>
</svg>

