<svg xmlns="http://www.w3.org/2000/svg" width="1600" height="260" viewBox="0 0 1600 260">
  <path d="M0 120 C 200 40 400 60 600 120 C 800 180 1000 200 1200 120 C 1400 40 1500 10 1600 60 L1600 0 L0 0 Z" fill="#0f2e3b"/>
  <path d="M0 180 C 260 120 460 150 680 190 C 900 230 1120 230 1340 180 C 1500 150 1560 130 1600 110 L1600 0 L0 0 Z" fill="#123a48" opacity="0.85"/>
  <path d="M0 220 C 240 200 440 220 680 230 C 920 240 1160 240 1400 220 C 1520 210 1580 190 1600 170 L1600 0 L0 0 Z" fill="#1eb980" opacity="0.25"/>
  <circle cx="180" cy="70" r="28" fill="#f2a93b" opacity="0.35"/>
  <circle cx="1320" cy="90" r="36" fill="#f2a93b" opacity="0.25"/>
</svg>
