<svg width="184" height="248" viewBox="0 0 184 248" fill="none" xmlns="http://www.w3.org/2000/svg">
  <defs>
    <linearGradient id="aabOuter" x1="26" y1="10" x2="160" y2="228" gradientUnits="userSpaceOnUse">
      <stop stop-color="#FFFDFC"/>
      <stop offset="1" stop-color="#EAF7FF"/>
    </linearGradient>
    <linearGradient id="aabEdge" x1="22" y1="20" x2="162" y2="224" gradientUnits="userSpaceOnUse">
      <stop stop-color="#FF8650"/>
      <stop offset="0.42" stop-color="#FFBF3F"/>
      <stop offset="1" stop-color="#29D0FF"/>
    </linearGradient>
    <linearGradient id="aabPanel" x1="54" y1="70" x2="130" y2="154" gradientUnits="userSpaceOnUse">
      <stop stop-color="#0D1A2F"/>
      <stop offset="1" stop-color="#152A48"/>
    </linearGradient>
    <linearGradient id="aabPill" x1="54" y1="188" x2="130" y2="214" gradientUnits="userSpaceOnUse">
      <stop stop-color="#FF6B2C"/>
      <stop offset="1" stop-color="#29D0FF"/>
    </linearGradient>
    <filter id="aabShadow" x="0" y="0" width="184" height="248" filterUnits="userSpaceOnUse" color-interpolation-filters="sRGB">
      <feDropShadow dx="0" dy="16" stdDeviation="14" flood-color="#10253D" flood-opacity="0.18"/>
    </filter>
  </defs>

  <g filter="url(#aabShadow)">
    <path d="M30 22C30 12.0589 38.0589 4 48 4H136C145.941 4 154 12.0589 154 22V169.47C154 176.872 149.454 183.513 142.561 186.189L102.606 201.7C95.8772 204.314 88.4093 204.345 81.6588 201.786L41.4723 186.551C34.5765 183.937 30 177.279 30 169.905V22Z" fill="url(#aabOuter)"/>
    <path d="M48 6H136C144.837 6 152 13.1634 152 22V169.47C152 176.05 147.959 181.952 141.836 184.329L101.881 199.84C95.6173 202.273 88.6647 202.302 82.3805 199.92L42.194 184.685C36.0682 182.362 32 176.446 32 169.905V22C32 13.1634 39.1634 6 48 6Z" stroke="url(#aabEdge)" stroke-width="4"/>

    <path d="M64 16H120C124.418 16 128 19.5817 128 24V33C128 37.4183 124.418 41 120 41H64C59.5817 41 56 37.4183 56 33V24C56 19.5817 59.5817 16 64 16Z" fill="#0E1B31"/>
    <path d="M64 17H120C123.866 17 127 20.134 127 24V33C127 36.866 123.866 40 120 40H64C60.134 40 57 36.866 57 33V24C57 20.134 60.134 17 64 17Z" stroke="url(#aabEdge)" stroke-opacity="0.5" stroke-width="2"/>
    <circle cx="68" cy="28.5" r="5" fill="url(#aabPill)"/>
    <path d="M78 25.5H109" stroke="#EAF7FF" stroke-width="3.4" stroke-linecap="round"/>
    <path d="M78 31.5H100" stroke="#9FC7DD" stroke-width="2.8" stroke-linecap="round"/>

    <path d="M48 62C48 54.268 54.268 48 62 48H122C129.732 48 136 54.268 136 62V150C136 157.732 129.732 164 122 164H62C54.268 164 48 157.732 48 150V62Z" fill="url(#aabPanel)"/>
    <path d="M62 49H122C129.18 49 135 54.8203 135 62V150C135 157.18 129.18 163 122 163H62C54.8203 163 49 157.18 49 150V62C49 54.8203 54.8203 49 62 49Z" stroke="url(#aabEdge)" stroke-opacity="0.22" stroke-width="2"/>

    <circle cx="92" cy="88" r="22" fill="#FDFEFE" fill-opacity="0.1"/>
    <circle cx="92" cy="88" r="19" fill="#0B1527"/>
    <circle cx="92" cy="88" r="18" stroke="url(#aabEdge)" stroke-opacity="0.45" stroke-width="2"/>
    <path d="M92 78V94" stroke="#F8FCFF" stroke-width="4.5" stroke-linecap="round"/>
    <path d="M84 90L92 98L100 90" stroke="#F8FCFF" stroke-width="4.5" stroke-linecap="round" stroke-linejoin="round"/>
    <path d="M80 105H104" stroke="#A6DFFF" stroke-width="3.4" stroke-linecap="round"/>

    <rect x="60" y="121" width="64" height="8" rx="4" fill="#FDFEFE" fill-opacity="0.16"/>
    <rect x="60" y="136" width="48" height="7" rx="3.5" fill="#FDFEFE" fill-opacity="0.12"/>
    <path d="M124 130C127.866 130 131 126.866 131 123C131 119.134 127.866 116 124 116" stroke="#FFBF3F" stroke-width="2.4" stroke-linecap="round"/>

    <rect x="50" y="180" width="84" height="34" rx="17" fill="#0D1A2F"/>
    <rect x="52" y="182" width="80" height="30" rx="15" fill="url(#aabPill)"/>
    <text x="92" y="201" text-anchor="middle" font-family="Arial, sans-serif" font-size="12.5" font-weight="700" letter-spacing="0.08em" fill="#08111F">GET APP</text>

    <path d="M54 188L66 180" stroke="#FFBF3F" stroke-width="2.6" stroke-linecap="round" opacity="0.78"/>
    <path d="M128 181L140 189" stroke="#29D0FF" stroke-width="2.6" stroke-linecap="round" opacity="0.82"/>
  </g>
</svg>
