<svg width="1200" height="520" viewBox="0 0 1200 520" fill="none" xmlns="http://www.w3.org/2000/svg">
  <rect width="1200" height="520" rx="40" fill="#FFF8EF"/>
  <circle cx="943" cy="141" r="118" fill="#FFF0CB"/>
  <path d="M0 360C141 311 287 295 438 314C586 333 680 390 827 401C960 411 1075 385 1200 336V520H0V360Z" fill="#FFE3C1"/>
  <rect x="96" y="88" width="516" height="344" rx="28" fill="#FFFDF8" stroke="#ff6a3d" stroke-width="8"/>
  <rect x="136" y="128" width="250" height="22" rx="11" fill="#F7C65E" fill-opacity="0.75"/>
  <rect x="136" y="172" width="330" height="54" rx="18" fill="#FFD9B3"/>
  <rect x="136" y="246" width="264" height="18" rx="9" fill="#EFC8AE"/>
  <rect x="136" y="280" width="218" height="18" rx="9" fill="#EFC8AE"/>
  <rect x="136" y="334" width="168" height="48" rx="24" fill="#ff6a3d"/>
  <rect x="710" y="98" width="184" height="250" rx="30" transform="rotate(9 710 98)" fill="#FFF9F0" stroke="#F7C65E" stroke-width="7"/>
  <rect x="842" y="140" width="184" height="250" rx="30" transform="rotate(-11 842 140)" fill="#FFF9F0" stroke="#ff6a3d" stroke-width="7"/>
</svg>
