<svg xmlns="http://www.w3.org/2000/svg" width="1600" height="600" viewBox="0 0 1600 600">
  <defs>
    <linearGradient id="bg" x1="0" x2="1" y1="0" y2="1">
      <stop offset="0%" stop-color="#0b1525"/>
      <stop offset="100%" stop-color="#0f2b3e"/>
    </linearGradient>
    <linearGradient id="card" x1="0" x2="1" y1="0" y2="1">
      <stop offset="0%" stop-color="#132a3f"/>
      <stop offset="100%" stop-color="#0b1525"/>
    </linearGradient>
  </defs>
  <rect width="1600" height="600" fill="url(#bg)"/>
  <g opacity="0.25" fill="#1eb980">
    <circle cx="200" cy="160" r="120"/>
    <circle cx="1400" cy="120" r="140"/>
  </g>
  <g transform="translate(980 130)">
    <rect x="30" y="20" width="320" height="420" rx="32" fill="#0a1a2e" opacity="0.55"/>
    <rect x="0" y="40" width="320" height="420" rx="32" fill="#0e2135" opacity="0.75"/>
    <rect x="-30" y="60" width="320" height="420" rx="32" fill="url(#card)" stroke="#1eb980" stroke-opacity="0.4" stroke-width="2"/>
    <path d="M110 150 c20 20 36 28 36 46 c0 18 -16 26 -36 44 c-20 -18 -36 -26 -36 -44 c0 -18 16 -26 36 -46z" fill="#f2a93b"/>
    <text x="130" y="320" font-family="Arial, sans-serif" font-size="36" font-weight="700" fill="#e9f5f2">CB</text>
  </g>
  <g font-family="Arial, sans-serif" fill="#e9f5f2">
    <text x="120" y="210" font-size="52" font-weight="800">Call Break Legend</text>
    <text x="120" y="260" font-size="22" opacity="0.85">Lead the table. Predict the tricks. Claim the legend.</text>
  </g>
  <g opacity="0.4" stroke="#f2a93b" stroke-width="2" fill="none">
    <path d="M120 320 H520"/>
  </g>
</svg>
