<svg xmlns="http://www.w3.org/2000/svg" width="900" height="900" viewBox="0 0 900 900">
  <defs>
    <linearGradient id="bg" x1="0" x2="1" y1="0" y2="1">
      <stop offset="0%" stop-color="#0b1525"/>
      <stop offset="100%" stop-color="#0f2b3e"/>
    </linearGradient>
  </defs>
  <rect width="900" height="900" fill="url(#bg)"/>
  <circle cx="150" cy="170" r="120" fill="#1eb980" opacity="0.25"/>
  <circle cx="720" cy="220" r="160" fill="#f2a93b" opacity="0.15"/>
  <g transform="translate(230 240)">
    <rect x="30" y="20" width="380" height="460" rx="36" fill="#0a1a2e" opacity="0.55"/>
    <rect x="0" y="40" width="380" height="460" rx="36" fill="#0e2135" opacity="0.75"/>
    <rect x="-30" y="60" width="380" height="460" rx="36" fill="#10283b" stroke="#1eb980" stroke-opacity="0.4" stroke-width="2"/>
    <path d="M160 170 c22 22 40 30 40 50 c0 20 -18 28 -40 48 c-22 -20 -40 -28 -40 -48 c0 -20 18 -28 40 -50z" fill="#f2a93b"/>
    <text x="180" y="360" font-family="Arial, sans-serif" font-size="44" font-weight="700" fill="#e9f5f2">CB</text>
  </g>
  <text x="120" y="140" font-family="Arial, sans-serif" font-size="44" font-weight="800" fill="#e9f5f2">Call Break Legend</text>
  <text x="120" y="190" font-family="Arial, sans-serif" font-size="22" fill="#e9f5f2" opacity="0.85">Predict the tricks, rule the table.</text>
</svg>
