<svg xmlns="http://www.w3.org/2000/svg" width="480" height="480" viewBox="0 0 480 480">
  <defs>
    <radialGradient id="halo" cx="50%" cy="50%" r="55%">
      <stop offset="0%" stop-color="#1eb980" stop-opacity="0.65"/>
      <stop offset="70%" stop-color="#0b1525" stop-opacity="0"/>
    </radialGradient>
    <linearGradient id="card" x1="0" x2="1" y1="0" y2="1">
      <stop offset="0%" stop-color="#102b3d"/>
      <stop offset="100%" stop-color="#0b1525"/>
    </linearGradient>
  </defs>
  <rect width="480" height="480" fill="url(#halo)"/>
  <g transform="translate(80 70)">
    <rect x="0" y="30" width="320" height="380" rx="36" fill="url(#card)" stroke="#1eb980" stroke-opacity="0.4" stroke-width="2"/>
    <rect x="30" y="60" width="260" height="320" rx="28" fill="#0f2538" stroke="#f2a93b" stroke-opacity="0.35"/>
    <g fill="#f2a93b" opacity="0.9">
      <path d="M160 108 l18 26 -18 26 -18 -26z"/>
      <path d="M115 210 c0 -22 16 -34 45 -50 c29 16 45 28 45 50 c0 28 -18 40 -45 62 c-27 -22 -45 -34 -45 -62z"/>
      <path d="M160 310 c-26 -20 -44 -34 -44 -58 c0 -20 14 -30 28 -42 c10 16 22 28 40 36 c18 -8 30 -20 40 -36 c14 12 28 22 28 42 c0 24 -18 38 -44 58 l-24 18z"/>
    </g>
    <g fill="#1eb980" opacity="0.9">
      <path d="M92 142 l18 26 -18 26 -18 -26z"/>
      <path d="M228 142 l18 26 -18 26 -18 -26z"/>
    </g>
    <g fill="#e9f5f2" opacity="0.8">
      <circle cx="160" cy="240" r="18"/>
    </g>
  </g>
</svg>
