<svg xmlns="http://www.w3.org/2000/svg" width="1600" height="900" viewBox="0 0 1600 900">
  <defs>
    <linearGradient id="bg" x1="0" x2="1" y1="0" y2="1">
      <stop offset="0%" stop-color="#0b1525"/>
      <stop offset="55%" stop-color="#0f2538"/>
      <stop offset="100%" stop-color="#0a1a2e"/>
    </linearGradient>
    <radialGradient id="glow" cx="50%" cy="10%" r="60%">
      <stop offset="0%" stop-color="#1eb980" stop-opacity="0.45"/>
      <stop offset="100%" stop-color="#1eb980" stop-opacity="0"/>
    </radialGradient>
  </defs>
  <rect width="1600" height="900" fill="url(#bg)"/>
  <rect width="1600" height="900" fill="url(#glow)"/>
  <g opacity="0.18" fill="#f2a93b">
    <path d="M140 140 l40 60 -40 60 -40 -60z"/>
    <path d="M320 120 l32 48 -32 48 -32 -48z"/>
    <path d="M520 160 l36 54 -36 54 -36 -54z"/>
    <path d="M1220 130 l40 60 -40 60 -40 -60z"/>
    <path d="M1380 170 l34 50 -34 50 -34 -50z"/>
  </g>
  <g opacity="0.12" fill="#e9f5f2">
    <circle cx="200" cy="700" r="140"/>
    <circle cx="420" cy="620" r="90"/>
    <circle cx="1320" cy="640" r="120"/>
  </g>
  <g opacity="0.15" stroke="#1eb980" stroke-width="2" fill="none">
    <path d="M120 460 C 360 380 520 420 760 460 C 1000 500 1180 520 1460 460"/>
    <path d="M80 520 C 360 460 560 520 820 560 C 1100 600 1280 620 1520 560"/>
  </g>
</svg>
