<?xml version="1.0" encoding="UTF-8"?>
<svg xmlns="http://www.w3.org/2000/svg" viewBox="0 0 72 56" role="img" aria-labelledby="title" shape-rendering="geometricPrecision">
  <title id="title">Weline mark</title>
  <path d="M0 0 C3.3 0 6.6 0 10 0 C12.38 6.34 14.29 12.47 16 19 C18.87 13.25 20.28 7.18 22 1 C26.62 1 31.24 1 36 1 C36.99 4.3 37.98 7.6 39 11 C40.98 10.67 42.96 10.34 45 10 C45.66 7.03 46.32 4.06 47 1 C50.63 0.67 54.26 0.34 58 0 C57.48 4.69 56.92 9.38 56 14 C57.32 16.97 58.64 19.94 60 23 C60 32 60 32 57 39 C52 43 52 43 47 43 C46.67 45.64 46.34 48.28 46 51 C45.67 51.33 45.34 51.66 45 52 C42.69 52 40.38 52 38 52 C34.34 45.91 32.85 39.83 31 33 C29.35 33.66 27.7 34.32 26 35 C24.2 40.29 22.52 45.62 21 51 C20.67 51.33 20.34 51.66 20 52 C17.69 52 15.38 52 13 52 C10 45 10 45 10 41 C8.02 40.67 6.04 40.34 4 40 C-1 35 -1 35 -3 30 C-3 22 -3 22 1 15 C0.42 10.32 -0.23 5.65 -1 1 C-0.67 0.67 -0.34 0.34 0 0 Z M2 18 C-1 22 -1 22 -1 29 C-0.34 29.66 0.32 30.32 1 31 C2.65 31 4.3 31 6 31 C5 22 5 22 4 18 C3.34 18 2.68 18 2 18 Z M53 22 C51.68 26.62 50.36 31.24 49 36 C49.99 36.33 50.98 36.66 52 37 C53.65 36.01 55.3 35.02 57 34 C57.33 31.03 57.66 28.06 58 25 C57.01 24.01 56.02 23.02 55 22 C54.34 22 53.68 22 53 22 Z" fill="#ef9d0f" transform="translate(5,2)"/>
  <path d="M0 0 C3.3 0 6.6 0 10 0 C12.38 6.34 14.29 12.47 16 19 C18.87 13.25 20.28 7.18 22 1 C26.62 1 31.24 1 36 1 C38 9 38 9 38 13 C34.07 15.45 30.05 17.75 26 20 C23.57 21.61 21.13 23.22 18.62 24.88 C12 29 12 29 6 30 C4.8 25.38 3.62 20.75 2.44 16.12 C2.11 14.84 2.11 14.84 0.43 8.32 C-1 2 -1 2 0 0 Z" fill="#4BA0D8" stroke="#4BA0D8" stroke-width=".45" stroke-linejoin="round" transform="translate(5,2)"/>
  <path d="M0 0 C-1 5 -1 5 -8 12 C-9.65 13.98 -11.3 15.96 -13 18 C-16.63 20.71 -20.3 23.39 -24 26 C-24.66 26.66 -25.32 27.32 -26 28 C-35 29 -35 29 -41 25 C-44 18 -44 18 -44 10 C-42.68 7.69 -41.36 5.38 -40 3 C-39.34 3 -38.68 3 -38 3 C-39 7 -39 7 -41 10 C-41 12.31 -41 14.62 -41 17 C-40.67 17.33 -40.34 17.66 -40 18 C-26.16 16.46 -16.54 8.47 -5 1 C-3 0 -3 0 0 0 Z" fill="#d47d08" transform="translate(46,14)"/>
  <path d="M0 0 C-6.72 28.72 -6.72 28.72 -8 30 C-10.31 30 -12.62 30 -15 30 C-19 23.34 -20.23 16.52 -22 9 C-15 4.08 -8.87 0 0 0 Z" fill="#399AD7" stroke="#399AD7" stroke-width=".45" stroke-linejoin="round" transform="translate(58,24)"/>
  <path d="M0 0 C4.62 0 9.24 0 14 0 C16 8 16 8 16 12 C9 16 9 16 5 15 C3.54 10.71 2.21 6.37 1 2 C0.67 1.34 0.34 0.68 0 0 Z" fill="#399AD7" transform="translate(27,3)"/>
  <path d="M0 0 C0.66 0 1.32 0 2 0 C0.89 6.24 -0.47 11.1 -3 17 C-5.31 17 -7.62 17 -10 17 C-13 10 -13 10 -12 5 C-6.5 2.75 -6.5 2.75 -1 1 C-0.67 0.67 -0.34 0.34 0 0 Z" fill="#4BA0D8" stroke="#4BA0D8" stroke-width=".2" stroke-linejoin="round" transform="translate(28,37)"/>
  <path d="M0 0 C-1 9 -1 9 -2 13 C-5.69 12.08 -9.35 11.04 -13 10 C-12.34 7.03 -11.68 4.06 -11 1 C-6 0 -6 0 0 0 Z" fill="#399AD7" transform="translate(63,2)"/>
</svg>