<svg width="160" height="160" viewBox="0 0 160 160" fill="none" xmlns="http://www.w3.org/2000/svg">
  <defs>
    <linearGradient id="haloRing" x1="24" y1="18" x2="136" y2="142" gradientUnits="userSpaceOnUse">
      <stop stop-color="#F3D17A"/>
      <stop offset="1" stop-color="#C9972B"/>
    </linearGradient>
    <linearGradient id="haloCore" x1="40" y1="36" x2="120" y2="126" gradientUnits="userSpaceOnUse">
      <stop stop-color="#2D7C63"/>
      <stop offset="1" stop-color="#143D31"/>
    </linearGradient>
  </defs>
  <circle cx="80" cy="80" r="61" fill="url(#haloCore)"/>
  <circle cx="80" cy="80" r="67" stroke="url(#haloRing)" stroke-width="8"/>
  <circle cx="80" cy="80" r="49" stroke="#F6F2E8" stroke-opacity="0.35" stroke-width="1.5"/>
  <path d="M80 24C87.2 34.8 96.6 43.6 108 50.2C97 57 87.6 66.6 80 79C72.4 66.6 63 57 52 50.2C63.4 43.6 72.8 34.8 80 24Z" fill="#F6F2E8" fill-opacity="0.92"/>
  <path d="M52 108C63.2 101.2 72.6 92.2 80 80C87.4 92.2 96.8 101.2 108 108C96.8 114.8 87.4 123.8 80 136C72.6 123.8 63.2 114.8 52 108Z" fill="#F3D17A" fill-opacity="0.92"/>
  <rect x="58" y="58" width="44" height="44" rx="10" fill="#F6F2E8"/>
  <path d="M70.2 89.2V84.8H75V68.4H71V65.2C73.2 64.8 74.8 64.2 76.4 63.2H80.2V84.8H84.4V89.2H70.2Z" fill="#1C4C3C"/>
  <path d="M88.6 89.2V86.2C95.4 80.2 99.8 75 99.8 70.8C99.8 67.8 98.2 66 95.4 66C93.2 66 91.4 67.4 89.8 69.2L86.6 66C89.4 63 92.4 61.2 96.2 61.2C102 61.2 106 64.8 106 70.4C106 75.4 101.8 80.8 96.6 85.8C98 85.6 99.8 85.4 101.2 85.4H107V89.2H88.6Z" fill="#1C4C3C"/>
</svg>
