<svg width="960" height="640" viewBox="0 0 960 640" fill="none" xmlns="http://www.w3.org/2000/svg">
  <defs>
    <linearGradient id="heroBg" x1="156" y1="108" x2="768" y2="540" gradientUnits="userSpaceOnUse">
      <stop stop-color="#F7FBF5"/>
      <stop offset="1" stop-color="#E2F1E7"/>
    </linearGradient>
    <linearGradient id="heroRing" x1="216" y1="152" x2="732" y2="536" gradientUnits="userSpaceOnUse">
      <stop stop-color="#F1D588"/>
      <stop offset="1" stop-color="#C5902A"/>
    </linearGradient>
    <linearGradient id="felt" x1="336" y1="188" x2="640" y2="468" gradientUnits="userSpaceOnUse">
      <stop stop-color="#2B8167"/>
      <stop offset="1" stop-color="#164334"/>
    </linearGradient>
  </defs>
  <rect width="960" height="640" rx="42" fill="url(#heroBg)"/>
  <circle cx="486" cy="328" r="196" stroke="url(#heroRing)" stroke-width="16" stroke-dasharray="16 18"/>
  <circle cx="486" cy="328" r="166" fill="url(#felt)"/>
  <circle cx="486" cy="328" r="140" stroke="#F8F4E8" stroke-opacity="0.26" stroke-width="1.5"/>
  <g filter="url(#shadow)">
    <rect x="300" y="182" width="148" height="212" rx="20" transform="rotate(-12 300 182)" fill="#FFFDF8"/>
    <rect x="424" y="208" width="148" height="212" rx="20" transform="rotate(-2 424 208)" fill="#FFFDF8"/>
    <rect x="548" y="182" width="148" height="212" rx="20" transform="rotate(11 548 182)" fill="#FFFDF8"/>
  </g>
  <path d="M355 238L378 270L401 238H355Z" fill="#D9624C"/>
  <path d="M601 230L624 262L647 230H601Z" fill="#D9624C"/>
  <path d="M598 340L621 372L644 340H598Z" fill="#D9624C"/>
  <path d="M478 252C498 282 524 306 556 324C524 342 498 367 478 396C458 367 432 342 400 324C432 306 458 282 478 252Z" fill="#D4A43A"/>
  <circle cx="214" cy="204" r="70" fill="#E7F3E4"/>
  <circle cx="214" cy="204" r="52" stroke="#CFA548" stroke-width="10" stroke-dasharray="10 12"/>
  <circle cx="214" cy="204" r="38" fill="#1B5844"/>
  <text x="214" y="214" text-anchor="middle" font-family="Outfit, Arial, sans-serif" font-size="28" font-weight="800" fill="#F8F4E8">21</text>
  <circle cx="744" cy="448" r="82" fill="#F1F7EC"/>
  <circle cx="744" cy="448" r="58" stroke="#D4A43A" stroke-width="12" stroke-dasharray="12 13"/>
  <circle cx="744" cy="448" r="42" fill="#1B5844"/>
  <path d="M718 448H770" stroke="#F8F4E8" stroke-width="8" stroke-linecap="round"/>
  <path d="M744 422V474" stroke="#F8F4E8" stroke-width="8" stroke-linecap="round"/>
  <rect x="186" y="434" width="184" height="72" rx="24" fill="#FFFDF8" fill-opacity="0.78"/>
  <text x="278" y="464" text-anchor="middle" font-family="Plus Jakarta Sans, Arial, sans-serif" font-size="22" font-weight="700" fill="#1F3F35">Live count</text>
  <text x="278" y="491" text-anchor="middle" font-family="Outfit, Arial, sans-serif" font-size="24" font-weight="800" fill="#C5902A">3 open tables</text>
  <defs>
    <filter id="shadow" x="256" y="148" width="500" height="324" filterUnits="userSpaceOnUse" color-interpolation-filters="sRGB">
      <feFlood flood-opacity="0" result="BackgroundImageFix"/>
      <feColorMatrix in="SourceAlpha" type="matrix" values="0 0 0 0 0 0 0 0 0 0 0 0 0 0 0 0 0 0 127 0" result="hardAlpha"/>
      <feOffset dy="18"/>
      <feGaussianBlur stdDeviation="20"/>
      <feColorMatrix type="matrix" values="0 0 0 0 0.101961 0 0 0 0 0.25098 0 0 0 0 0.2 0 0 0 0.18 0"/>
      <feBlend mode="normal" in2="BackgroundImageFix" result="effect1_dropShadow_1_2"/>
      <feBlend mode="normal" in="SourceGraphic" in2="effect1_dropShadow_1_2" result="shape"/>
    </filter>
  </defs>
</svg>
