<svg width="164" height="164" viewBox="0 0 164 164" fill="none" xmlns="http://www.w3.org/2000/svg">
  <defs>
    <linearGradient id="rsnFloatShell" x1="25" y1="18" x2="138" y2="149" gradientUnits="userSpaceOnUse">
      <stop stop-color="#FF7A52"/>
      <stop offset="0.42" stop-color="#FFBF47"/>
      <stop offset="0.74" stop-color="#DFFF5A"/>
      <stop offset="1" stop-color="#54F0FF"/>
    </linearGradient>
    <linearGradient id="rsnFloatCore" x1="43" y1="28" x2="119" y2="141" gradientUnits="userSpaceOnUse">
      <stop stop-color="#1A1217"/>
      <stop offset="0.58" stop-color="#120E16"/>
      <stop offset="1" stop-color="#0A0B12"/>
    </linearGradient>
    <radialGradient id="rsnFloatGlow" cx="0" cy="0" r="1" gradientUnits="userSpaceOnUse" gradientTransform="translate(82 82) rotate(90) scale(82)">
      <stop stop-color="#FFF2D7" stop-opacity="0.22"/>
      <stop offset="1" stop-color="#FFF2D7" stop-opacity="0"/>
    </radialGradient>
    <filter id="rsnFloatShadow" x="0" y="0" width="164" height="164" filterUnits="userSpaceOnUse" color-interpolation-filters="sRGB">
      <feFlood flood-opacity="0" result="BackgroundImageFix"/>
      <feColorMatrix in="SourceAlpha" type="matrix" values="0 0 0 0 0 0 0 0 0 0 0 0 0 0 0 0 0 0 127 0" result="hardAlpha"/>
      <feOffset dy="14"/>
      <feGaussianBlur stdDeviation="10"/>
      <feComposite in2="hardAlpha" operator="out"/>
      <feColorMatrix type="matrix" values="0 0 0 0 0.0156863 0 0 0 0 0.0196078 0 0 0 0 0.0470588 0 0 0 0.34 0"/>
      <feBlend mode="normal" in2="BackgroundImageFix" result="effect1_dropShadow_0_1"/>
      <feBlend mode="normal" in="SourceGraphic" in2="effect1_dropShadow_0_1" result="shape"/>
    </filter>
  </defs>
  <g filter="url(#rsnFloatShadow)">
    <path d="M44.219 16.559C62.233 7.301 85.307 7.169 104.011 14.919L119.266 21.239C133.271 27.042 143.46 39.471 146.234 54.356L149.305 70.831C151.399 82.067 149.631 93.677 144.282 103.784L136.445 118.594C128.854 132.939 115.508 143.366 99.758 147.209L82.415 151.439C67.855 154.989 52.486 152.53 39.764 144.595L28.061 137.294C15.38 129.385 7.226 115.895 5.912 100.998L4.615 86.295C3.365 72.131 8.233 58.082 18.004 47.751L29.64 35.449C33.93 30.914 38.722 24.53 44.219 16.559Z" fill="url(#rsnFloatShell)"/>
    <path d="M50.636 26.326C66.811 18.083 86.647 18.213 102.713 26.671L113.915 32.57C125.332 38.58 133.127 49.793 134.935 62.575L136.853 76.142C138.309 86.445 136.337 96.936 131.232 105.998L125.474 116.217C119.122 127.496 108.356 135.664 95.7353 138.765L82.6133 141.989C69.8482 145.126 56.3508 142.947 45.2042 135.977L36.2937 130.406C25.5959 123.716 18.7153 112.197 17.7692 99.6146L16.9013 88.0697C16.0762 77.0919 19.9301 66.2635 27.5091 58.2836L36.8378 48.4614C40.5775 44.5247 44.9543 38.9434 50.636 26.326Z" fill="url(#rsnFloatCore)"/>
    <path d="M50.636 26.326C66.811 18.083 86.647 18.213 102.713 26.671L113.915 32.57C125.332 38.58 133.127 49.793 134.935 62.575L136.853 76.142C138.309 86.445 136.337 96.936 131.232 105.998L125.474 116.217C119.122 127.496 108.356 135.664 95.7353 138.765L82.6133 141.989C69.8482 145.126 56.3508 142.947 45.2042 135.977L36.2937 130.406C25.5959 123.716 18.7153 112.197 17.7692 99.6146L16.9013 88.0697C16.0762 77.0919 19.9301 66.2635 27.5091 58.2836L36.8378 48.4614C40.5775 44.5247 44.9543 38.9434 50.636 26.326Z" fill="url(#rsnFloatGlow)"/>
    <circle cx="49" cy="44" r="12" fill="#FFF4DE" fill-opacity="0.94"/>
    <circle cx="49" cy="44" r="6" fill="#FF6A4B"/>
    <path d="M96.3013 44.6367C108.018 44.6367 117.516 54.1344 117.516 65.8511V71.0381C117.516 82.7548 108.018 92.2525 96.3013 92.2525C84.5846 92.2525 75.0869 82.7548 75.0869 71.0381V65.8511C75.0869 54.1344 84.5846 44.6367 96.3013 44.6367Z" fill="url(#rsnFloatShell)" fill-opacity="0.18" stroke="url(#rsnFloatShell)" stroke-width="2.5"/>
    <path d="M96.3018 52.3828V72.8495" stroke="#FFF6E8" stroke-width="5" stroke-linecap="round"/>
    <path d="M86.709 66.8066L96.302 76.3996L105.895 66.8066" stroke="#FFF6E8" stroke-width="5" stroke-linecap="round" stroke-linejoin="round"/>
    <path d="M82.6396 88.3809H109.965" stroke="#DFFF5A" stroke-width="3.6" stroke-linecap="round"/>
    <path d="M49.5 101.684C62.7569 98.7146 74.5547 98.4313 85.5664 101.684" stroke="#4DF6FF" stroke-opacity="0.65" stroke-width="2.8" stroke-linecap="round"/>
    <path d="M44.5693 117.406C56.7222 114.987 68.7942 114.987 80.9469 117.406" stroke="#FFBF47" stroke-opacity="0.72" stroke-width="2.8" stroke-linecap="round"/>
    <text x="82" y="123" text-anchor="middle" fill="#F7F1E8" font-family="Arial, sans-serif" font-size="11" font-weight="700" letter-spacing="2">QUICK</text>
    <text x="82" y="138" text-anchor="middle" fill="#F7F1E8" font-family="Arial, sans-serif" font-size="15" font-weight="800" letter-spacing="2.8">DOWNLOAD</text>
  </g>
</svg>
