<svg width="420" height="280" viewBox="0 0 420 280" fill="none" xmlns="http://www.w3.org/2000/svg">
  <rect width="420" height="280" rx="28" fill="#15102A"/>
  <circle cx="330" cy="82" r="56" fill="#2BE7FF" fill-opacity="0.14"/>
  <circle cx="330" cy="82" r="42" fill="#D2FF3F" fill-opacity="0.12"/>
  <rect x="132" y="58" width="156" height="176" rx="28" fill="#F8FAFF"/>
  <text x="164" y="102" font-family="Sora, Arial, sans-serif" font-size="40" font-weight="700" fill="#FF4D7A">J</text>
  <path d="M186 126C178 138 172 145 172 153C172 164 180 172 190 172C200 172 208 164 208 154C208 145 198 136 186 126Z" fill="#FF4D7A"/>
  <path d="M186 178L170 158H202L186 178Z" fill="#FF4D7A"/>
  <text x="208" y="194" font-family="Sora, Arial, sans-serif" font-size="78" font-weight="700" fill="#131A31">J</text>
  <path d="M48 230C116 182 170 156 238 148C302 141 350 116 394 68" stroke="#D2FF3F" stroke-width="6" stroke-linecap="round" stroke-dasharray="8 14" stroke-opacity="0.68"/>
</svg>
