<svg width="420" height="280" viewBox="0 0 420 280" fill="none" xmlns="http://www.w3.org/2000/svg">
  <rect width="420" height="280" rx="28" fill="#FFF3C1"/>
  <circle cx="210" cy="138" r="104" fill="#FF8C42" fill-opacity="0.16"/>
  <rect x="108" y="52" width="96" height="170" rx="24" fill="#F8FAFF" transform="rotate(-10 108 52)"/>
  <rect x="194" y="52" width="96" height="170" rx="24" fill="#F8FAFF"/>
  <rect x="278" y="52" width="96" height="170" rx="24" fill="#F8FAFF" transform="rotate(10 278 52)"/>
  <text x="138" y="98" font-family="Sora, Arial, sans-serif" font-size="32" font-weight="700" fill="#FF4D7A">5</text>
  <text x="224" y="98" font-family="Sora, Arial, sans-serif" font-size="32" font-weight="700" fill="#131A31">6</text>
  <text x="308" y="98" font-family="Sora, Arial, sans-serif" font-size="32" font-weight="700" fill="#2BE7FF">7</text>
  <path d="M224 148L236 164L224 180L212 164L224 148Z" fill="#131A31"/>
  <path d="M322 146C314 158 308 164 308 172C308 182 316 190 326 190C336 190 344 182 344 172C344 163 334 154 322 146Z" fill="#2BE7FF"/>
  <path d="M322 196L306 176H338L322 196Z" fill="#2BE7FF"/>
</svg>
