<svg width="96" height="96" viewBox="0 0 96 96" fill="none" xmlns="http://www.w3.org/2000/svg" role="img" aria-label="Indian Rummy Voltage floating download icon">
  <defs>
    <linearGradient id="surgeBg" x1="12" y1="10" x2="84" y2="88" gradientUnits="userSpaceOnUse">
      <stop stop-color="#17102A"/>
      <stop offset="1" stop-color="#0D1C31"/>
    </linearGradient>
    <linearGradient id="surgeRing" x1="20" y1="16" x2="77" y2="80" gradientUnits="userSpaceOnUse">
      <stop stop-color="#FFD067"/>
      <stop offset="0.52" stop-color="#A9FF5E"/>
      <stop offset="1" stop-color="#59D7FF"/>
    </linearGradient>
    <linearGradient id="surgeArrow" x1="48" y1="29" x2="48" y2="63" gradientUnits="userSpaceOnUse">
      <stop stop-color="#FFE6A8"/>
      <stop offset="1" stop-color="#FF9A54"/>
    </linearGradient>
    <radialGradient id="surgeGlow" cx="0" cy="0" r="1" gradientUnits="userSpaceOnUse" gradientTransform="translate(48 48) rotate(90) scale(30)">
      <stop stop-color="#59D7FF" stop-opacity="0.32"/>
      <stop offset="1" stop-color="#59D7FF" stop-opacity="0"/>
    </radialGradient>
  </defs>

  <rect x="8" y="8" width="80" height="80" rx="22" fill="url(#surgeBg)" stroke="url(#surgeRing)" stroke-width="1.8"/>
  <rect x="15" y="15" width="66" height="66" rx="18" stroke="url(#surgeRing)" stroke-opacity="0.35" stroke-width="1.1"/>
  <circle cx="48" cy="48" r="24" fill="url(#surgeGlow)"/>

  <rect x="33" y="21" width="30" height="54" rx="9" fill="#12263C" stroke="#8DDDEF" stroke-opacity="0.42"/>
  <rect x="37" y="27" width="22" height="30" rx="5" fill="#183B58"/>
  <circle cx="48" cy="65" r="2.6" fill="#8EDDF0"/>

  <path d="M48 33V53" stroke="url(#surgeArrow)" stroke-width="4.6" stroke-linecap="round"/>
  <path d="M40 47L48 55L56 47" stroke="url(#surgeArrow)" stroke-width="4.6" stroke-linecap="round" stroke-linejoin="round"/>
  <rect x="35" y="59" width="26" height="5.6" rx="2.8" fill="#0F2338" stroke="#59D7FF" stroke-opacity="0.45"/>

  <circle cx="24" cy="24" r="2.6" fill="#FFD067"/>
  <circle cx="72" cy="72" r="2.6" fill="#59D7FF"/>
  <circle cx="72" cy="24" r="2.2" fill="#A9FF5E"/>
  <circle cx="24" cy="72" r="2.2" fill="#FF9A54"/>
</svg>
