<svg width="128" height="128" viewBox="0 0 128 128" fill="none" xmlns="http://www.w3.org/2000/svg">
  <rect width="128" height="128" rx="32" fill="#FFF6DD"/>
  <rect x="18" y="22" width="92" height="84" rx="24" fill="url(#paint0_linear_1_2)"/>
  <path d="M38 40C38 35.5817 41.5817 32 46 32H82C86.4183 32 90 35.5817 90 40V44H38V40Z" fill="#2A110A" fill-opacity="0.16"/>
  <path d="M35 56C35 49.3726 40.3726 44 47 44H81C87.6274 44 93 49.3726 93 56V64C93 70.6274 87.6274 76 81 76H47C40.3726 76 35 70.6274 35 64V56Z" fill="#FFFDF6"/>
  <path d="M34 80H94V85C94 91.6274 88.6274 97 82 97H46C39.3726 97 34 91.6274 34 85V80Z" fill="#FFFFFF" fill-opacity="0.72"/>
  <circle cx="48" cy="60" r="9" fill="#FF5A36"/>
  <circle cx="64" cy="60" r="9" fill="#FFB703"/>
  <circle cx="80" cy="60" r="9" fill="#00C2A8"/>
  <path d="M52 87C52 84.7909 53.7909 83 56 83H72C74.2091 83 76 84.7909 76 87V97H52V87Z" fill="#2D170B" fill-opacity="0.16"/>
  <circle cx="26" cy="30" r="7" fill="#FF5A36"/>
  <circle cx="104" cy="32" r="6" fill="#00C2A8"/>
  <circle cx="101" cy="97" r="8" fill="#FFB703"/>
  <path d="M22 95L29 88L36 95L29 102L22 95Z" fill="#2D170B" fill-opacity="0.12"/>
  <defs>
    <linearGradient id="paint0_linear_1_2" x1="24" y1="28" x2="109" y2="108" gradientUnits="userSpaceOnUse">
      <stop stop-color="#FFD84D"/>
      <stop offset="0.48" stop-color="#FF8E3C"/>
      <stop offset="1" stop-color="#FF4F7B"/>
    </linearGradient>
  </defs>
</svg>
