<svg width="880" height="760" viewBox="0 0 880 760" fill="none" xmlns="http://www.w3.org/2000/svg">
  <defs>
    <linearGradient id="bgA" x1="120" y1="0" x2="760" y2="760" gradientUnits="userSpaceOnUse">
      <stop stop-color="#FFF7D5"/>
      <stop offset="0.48" stop-color="#FFE3A7"/>
      <stop offset="1" stop-color="#FFD0B9"/>
    </linearGradient>
    <linearGradient id="panelA" x1="152" y1="134" x2="454" y2="516" gradientUnits="userSpaceOnUse">
      <stop stop-color="#FFFFFF"/>
      <stop offset="0.54" stop-color="#FFF1A8"/>
      <stop offset="1" stop-color="#FFB86A"/>
    </linearGradient>
    <linearGradient id="panelB" x1="438" y1="158" x2="758" y2="516" gradientUnits="userSpaceOnUse">
      <stop stop-color="#FFFFFF"/>
      <stop offset="0.5" stop-color="#DFFFF5"/>
      <stop offset="1" stop-color="#87E8DA"/>
    </linearGradient>
    <linearGradient id="panelC" x1="292" y1="322" x2="624" y2="656" gradientUnits="userSpaceOnUse">
      <stop stop-color="#FFFFFF"/>
      <stop offset="0.52" stop-color="#FFE4E9"/>
      <stop offset="1" stop-color="#FF9A87"/>
    </linearGradient>
    <radialGradient id="orbSun" cx="0" cy="0" r="1" gradientUnits="userSpaceOnUse" gradientTransform="translate(158 142) rotate(90) scale(188 188)">
      <stop stop-color="#FFD75D" stop-opacity="0.8"/>
      <stop offset="1" stop-color="#FFD75D" stop-opacity="0"/>
    </radialGradient>
    <radialGradient id="orbMint" cx="0" cy="0" r="1" gradientUnits="userSpaceOnUse" gradientTransform="translate(716 208) rotate(90) scale(174 174)">
      <stop stop-color="#00CDB6" stop-opacity="0.72"/>
      <stop offset="1" stop-color="#00CDB6" stop-opacity="0"/>
    </radialGradient>
  </defs>
  <rect width="880" height="760" rx="56" fill="url(#bgA)"/>
  <circle cx="158" cy="142" r="188" fill="url(#orbSun)"/>
  <circle cx="716" cy="208" r="174" fill="url(#orbMint)"/>
  <path d="M76 166H804" stroke="#FFFFFF" stroke-opacity="0.54" stroke-width="2" stroke-dasharray="8 10"/>
  <path d="M118 612C216 546 318 522 424 554C548 592 648 662 770 624" stroke="#FF7A45" stroke-width="8" stroke-linecap="round"/>
  <path d="M162 248C244 214 312 216 376 250C452 290 514 348 614 350C672 352 732 332 788 292" stroke="#00CDB6" stroke-width="7" stroke-linecap="round"/>
  <g opacity="0.96">
    <rect x="120" y="132" width="282" height="380" rx="34" transform="rotate(-7 120 132)" fill="url(#panelA)" stroke="#FF7A45" stroke-width="4"/>
    <rect x="430" y="152" width="276" height="360" rx="34" transform="rotate(6 430 152)" fill="url(#panelB)" stroke="#00CDB6" stroke-width="4"/>
    <rect x="286" y="304" width="308" height="318" rx="34" fill="url(#panelC)" stroke="#FF7A45" stroke-width="4"/>
  </g>
  <rect x="170" y="204" width="180" height="108" rx="26" fill="#FFFFFF" fill-opacity="0.76"/>
  <rect x="204" y="236" width="112" height="16" rx="8" fill="#FFD75D"/>
  <rect x="204" y="266" width="86" height="12" rx="6" fill="#FF9D73"/>
  <rect x="204" y="290" width="126" height="12" rx="6" fill="#00CDB6"/>
  <rect x="496" y="224" width="154" height="92" rx="24" fill="#FFFFFF" fill-opacity="0.76"/>
  <rect x="528" y="250" width="88" height="12" rx="6" fill="#00CDB6"/>
  <rect x="528" y="274" width="64" height="12" rx="6" fill="#FFB65F"/>
  <rect x="336" y="390" width="210" height="138" rx="28" fill="#FFFFFF" fill-opacity="0.78"/>
  <rect x="370" y="426" width="138" height="16" rx="8" fill="#FF7A45"/>
  <rect x="370" y="456" width="104" height="12" rx="6" fill="#FFD75D"/>
  <rect x="370" y="480" width="146" height="12" rx="6" fill="#00CDB6"/>
  <circle cx="244" cy="502" r="22" fill="#FFD75D"/>
  <circle cx="630" cy="478" r="18" fill="#FFFFFF" stroke="#00CDB6" stroke-width="4"/>
  <circle cx="590" cy="612" r="28" fill="#FF8B74"/>
  <path d="M684 112L708 136L684 160L660 136L684 112Z" fill="#FFFFFF" stroke="#FF7A45" stroke-width="4"/>
  <path d="M122 566L150 594L122 622L94 594L122 566Z" fill="#FFFFFF" stroke="#00CDB6" stroke-width="4"/>
  <path d="M742 540L770 568L742 596L714 568L742 540Z" fill="#FFFFFF" stroke="#FF7A45" stroke-width="4"/>
</svg>
