<svg width="240" height="240" viewBox="0 0 240 240" fill="none" xmlns="http://www.w3.org/2000/svg">
  <defs>
    <linearGradient id="ring" x1="32" y1="32" x2="208" y2="208" gradientUnits="userSpaceOnUse">
      <stop stop-color="#FFF0AF"/>
      <stop offset="0.48" stop-color="#FFD166"/>
      <stop offset="1" stop-color="#FF6F3C"/>
    </linearGradient>
  </defs>
  <circle cx="120" cy="120" r="102" fill="#170A28" stroke="url(#ring)" stroke-width="8"/>
  <circle cx="120" cy="120" r="74" fill="#261040" stroke="#6EF3FF" stroke-opacity="0.5" stroke-width="3"/>
  <path d="M70 156C70 118.444 100.444 88 138 88H154V176H70V156Z" fill="#FFD166"/>
  <path d="M138 88C100.444 88 70 118.444 70 156V176H170V156C170 144.902 167.192 134.452 162.25 125.333L138 88Z" fill="#FF6F3C" fill-opacity="0.75"/>
  <path d="M98 63H142" stroke="#FFF0AF" stroke-width="6" stroke-linecap="round"/>
  <path d="M90 106L119 82L148 106L119 130L90 106Z" fill="#6EF3FF"/>
  <path d="M120 34L126 51L144 52L130 63L135 80L120 70L105 80L110 63L96 52L114 51L120 34Z" fill="#FFF0AF"/>
</svg>
