<svg width="160" height="160" viewBox="0 0 160 160" fill="none" xmlns="http://www.w3.org/2000/svg">
  <defs>
    <linearGradient id="csdSun" x1="28" y1="20" x2="132" y2="140" gradientUnits="userSpaceOnUse">
      <stop stop-color="#FFF2AA"/>
      <stop offset="0.45" stop-color="#FFB85C"/>
      <stop offset="1" stop-color="#FF7D53"/>
    </linearGradient>
    <linearGradient id="csdLeaf" x1="34" y1="34" x2="126" y2="126" gradientUnits="userSpaceOnUse">
      <stop stop-color="#1FD0BE"/>
      <stop offset="1" stop-color="#007E9A"/>
    </linearGradient>
  </defs>
  <rect width="160" height="160" rx="40" fill="#FFF9EA"/>
  <rect x="10" y="10" width="140" height="140" rx="34" fill="url(#csdSun)"/>
  <circle cx="80" cy="80" r="42" fill="#FFF7D6" fill-opacity="0.72"/>
  <path d="M80 38L89.7 57.3L111 59.6L95.4 73.8L99.8 95L80 84.7L60.2 95L64.6 73.8L49 59.6L70.3 57.3L80 38Z" fill="#8D3E22"/>
  <path d="M58 104C65.5 94.8 75.1 89.7 80 88.4C84.9 89.7 94.5 94.8 102 104C95.1 112.8 86.7 118 80 121C73.3 118 64.9 112.8 58 104Z" fill="url(#csdLeaf)"/>
  <path d="M80 92C74.3 92 69.4 97.4 68.1 103.2C70.8 106.3 75.1 109.4 80 111.9C84.9 109.4 89.2 106.3 91.9 103.2C90.6 97.4 85.7 92 80 92Z" fill="#FFF6D6"/>
  <circle cx="80" cy="71" r="5" fill="#FFF6D6"/>
  <path d="M30 123C46.8 111 63.8 105 80 105C96.2 105 113.2 111 130 123" stroke="#FFF8DE" stroke-width="6" stroke-linecap="round"/>
</svg>
