<svg width="920" height="760" viewBox="0 0 920 760" fill="none" xmlns="http://www.w3.org/2000/svg">
  <defs>
    <linearGradient id="bg" x1="88" y1="62" x2="786" y2="676" gradientUnits="userSpaceOnUse">
      <stop stop-color="#FFF1B0"/>
      <stop offset="0.42" stop-color="#FFB369"/>
      <stop offset="1" stop-color="#1FD0BE"/>
    </linearGradient>
    <linearGradient id="card" x1="188" y1="170" x2="679" y2="593" gradientUnits="userSpaceOnUse">
      <stop stop-color="#FFFDF5"/>
      <stop offset="1" stop-color="#FFF0CE"/>
    </linearGradient>
    <linearGradient id="accent" x1="255" y1="224" x2="655" y2="540" gradientUnits="userSpaceOnUse">
      <stop stop-color="#FF8359"/>
      <stop offset="1" stop-color="#FFCF63"/>
    </linearGradient>
  </defs>
  <rect width="920" height="760" rx="54" fill="url(#bg)"/>
  <circle cx="177" cy="161" r="118" fill="#FFF9E4" fill-opacity="0.34"/>
  <circle cx="760" cy="150" r="92" fill="#FFF9E4" fill-opacity="0.26"/>
  <circle cx="744" cy="596" r="132" fill="#FFF9E4" fill-opacity="0.2"/>
  <path d="M135 558C257 487 350 446 460 446C570 446 670 487 796 558" stroke="#FFF7DE" stroke-width="20" stroke-linecap="round"/>
  <path d="M198 596C285 542 368 516 460 516C552 516 635 542 722 596" stroke="#FFF7DE" stroke-opacity="0.7" stroke-width="12" stroke-linecap="round"/>
  <g transform="translate(212 128) rotate(-8 248 236)">
    <rect x="0" y="0" width="496" height="472" rx="40" fill="url(#card)"/>
    <rect x="14" y="14" width="468" height="444" rx="30" stroke="#E4A25F" stroke-width="2"/>
    <rect x="70" y="82" width="356" height="208" rx="28" fill="url(#accent)"/>
    <circle cx="248" cy="186" r="70" fill="#FFF8DE" fill-opacity="0.26"/>
    <path d="M248 116L264 150L301 154L273 179L281 216L248 198L215 216L223 179L195 154L232 150L248 116Z" fill="#6A2518"/>
    <rect x="84" y="316" width="132" height="88" rx="22" fill="#FFF9EB"/>
    <rect x="232" y="316" width="180" height="88" rx="22" fill="#FFF9EB"/>
    <text x="108" y="368" fill="#7B4F35" font-size="30" font-family="Arial, sans-serif" font-weight="700">29 pts</text>
    <text x="254" y="352" fill="#7B4F35" font-size="24" font-family="Arial, sans-serif" font-weight="700">Trump call</text>
    <text x="254" y="382" fill="#A0684A" font-size="18" font-family="Arial, sans-serif">Sunlit match pace</text>
  </g>
  <g transform="translate(596 202) rotate(14 120 168)">
    <rect width="240" height="336" rx="28" fill="#FFFDF6"/>
    <rect x="12" y="12" width="216" height="312" rx="20" stroke="#E09A58" stroke-width="2"/>
    <path d="M120 84C98 84 78 102 78 129C78 158 103 182 120 197C137 182 162 158 162 129C162 102 142 84 120 84Z" fill="#1AAEAC"/>
    <path d="M120 215L136 245L170 249L145 272L151 305L120 289L89 305L95 272L70 249L104 245L120 215Z" fill="#FF7F58"/>
    <text x="48" y="54" fill="#8E482B" font-size="24" font-family="Arial, sans-serif" font-weight="700">CB</text>
    <text x="168" y="302" fill="#8E482B" font-size="24" font-family="Arial, sans-serif" font-weight="700">A</text>
  </g>
  <g transform="translate(94 274) rotate(-16 118 164)">
    <rect width="236" height="328" rx="28" fill="#FFFDF6"/>
    <rect x="12" y="12" width="212" height="304" rx="20" stroke="#E09A58" stroke-width="2"/>
    <path d="M118 94L132 122L164 126L140 148L146 179L118 164L90 179L96 148L72 126L104 122L118 94Z" fill="#FF7E55"/>
    <path d="M118 200C95 200 75 218 75 245C75 272 99 296 118 312C137 296 161 272 161 245C161 218 141 200 118 200Z" fill="#1AB7B5"/>
    <text x="38" y="56" fill="#8E482B" font-size="24" font-family="Arial, sans-serif" font-weight="700">Sun</text>
  </g>
</svg>
