<svg id="svg" version="1.1" xmlns="http://www.w3.org/2000/svg" xmlns:xlink="http://www.w3.org/1999/xlink" width="400"
     height="342.85714285714283" viewBox="0, 0, 400,342.85714285714283">
    <g id="svgg">
        <path id="path0"
              d="M139.384 36.449 C 138.483 37.442,136.481 41.345,133.444 48.027 C 132.115 50.952,130.420 54.580,129.676 56.089 C 128.932 57.599,127.305 61.072,126.059 63.808 C 124.814 66.544,123.031 70.403,122.097 72.384 C 121.163 74.365,120.078 77.067,119.685 78.388 C 118.231 83.280,117.026 83.939,110.473 83.419 C 105.717 83.042,95.269 83.623,89.744 84.571 C 88.065 84.859,84.977 85.324,82.883 85.603 C 71.388 87.139,59.504 93.893,54.133 101.943 C 52.359 104.600,49.227 111.731,47.980 115.952 C 47.234 118.476,47.344 130.956,48.137 133.791 C 50.285 141.467,56.561 150.252,62.751 154.248 C 63.804 154.928,65.316 155.934,66.111 156.485 C 66.906 157.036,68.836 158.002,70.399 158.634 C 71.963 159.265,73.859 160.102,74.614 160.494 C 85.992 166.402,123.764 168.100,140.823 163.470 C 142.521 163.009,145.532 162.251,147.513 161.785 C 151.882 160.758,161.973 157.620,163.649 156.767 C 164.316 156.428,166.422 155.607,168.329 154.943 C 170.236 154.279,172.618 153.320,173.622 152.811 C 174.626 152.303,176.456 151.512,177.689 151.054 C 179.834 150.257,184.106 148.348,190.395 145.375 C 194.363 143.499,202.215 140.465,206.175 139.276 C 207.967 138.738,210.592 137.802,212.007 137.197 C 215.040 135.900,225.588 132.304,228.600 131.540 C 229.757 131.247,233.019 130.254,235.849 129.333 C 264.620 119.977,279.081 116.826,298.971 115.579 C 318.800 114.335,324.449 118.843,320.074 132.419 C 317.933 139.061,316.647 146.826,317.468 148.154 C 319.764 151.870,328.416 137.101,328.906 128.630 C 329.649 115.780,315.155 97.899,300.172 93.180 C 298.756 92.735,296.286 91.823,294.683 91.154 C 285.149 87.179,261.936 87.052,248.885 90.904 C 247.564 91.294,244.377 92.147,241.803 92.800 C 239.229 93.453,235.909 94.434,234.427 94.979 C 232.945 95.525,230.210 96.386,228.350 96.892 C 226.489 97.398,224.097 98.208,223.033 98.692 C 221.968 99.175,219.014 100.239,216.467 101.055 C 209.937 103.148,205.040 104.780,199.485 106.713 C 196.844 107.632,193.741 108.618,192.590 108.905 C 191.438 109.192,189.432 109.828,188.130 110.319 C 184.592 111.654,184.207 111.548,177.358 107.333 C 174.840 105.783,173.451 104.021,171.712 100.172 C 170.817 98.190,169.097 94.535,167.890 92.049 C 166.682 89.562,165.695 87.423,165.695 87.295 C 165.695 87.167,164.678 84.878,163.436 82.210 C 161.243 77.501,160.506 75.950,156.160 66.895 C 155.028 64.537,153.993 62.221,153.860 61.750 C 153.727 61.278,153.183 60.104,152.650 59.142 C 152.117 58.179,151.283 56.404,150.797 55.197 C 150.311 53.989,149.227 51.612,148.388 49.914 C 147.549 48.216,145.824 44.588,144.554 41.852 C 141.504 35.279,140.961 34.713,139.384 36.449 M106.518 96.905 C 114.388 98.133,114.389 97.385,106.501 113.722 C 102.396 122.226,102.055 123.532,103.774 124.185 C 105.035 124.665,113.788 123.302,119.211 121.782 C 121.852 121.041,125.480 120.117,127.273 119.727 C 129.065 119.337,132.153 118.490,134.134 117.843 C 136.115 117.197,139.048 116.341,140.652 115.941 C 142.256 115.541,144.700 114.761,146.085 114.209 C 147.469 113.656,150.114 112.821,151.962 112.353 C 153.810 111.884,157.000 110.905,159.050 110.176 C 167.420 107.202,170.440 107.209,171.966 110.203 C 173.785 113.773,173.148 114.987,168.764 116.298 C 166.981 116.832,163.593 117.907,161.235 118.688 C 158.877 119.469,154.014 121.046,150.429 122.192 C 146.844 123.338,142.599 124.741,140.995 125.310 C 139.391 125.879,135.840 126.915,133.105 127.611 C 130.369 128.308,126.818 129.280,125.214 129.771 C 122.006 130.754,104.607 134.539,100.496 135.148 C 99.071 135.360,97.064 135.761,96.037 136.041 C 93.073 136.848,79.067 137.445,74.293 136.967 C 54.571 134.996,47.587 119.372,61.042 107.325 C 64.794 103.965,76.855 98.473,82.398 97.599 C 84.155 97.322,86.750 96.866,88.165 96.586 C 91.517 95.921,101.306 96.091,106.518 96.905 M77.144 174.574 C 76.692 174.930,75.877 176.204,75.332 177.405 C 70.750 187.516,68.459 192.513,64.874 200.214 C 63.722 202.690,62.779 204.817,62.779 204.940 C 62.779 205.064,61.996 206.756,61.038 208.701 C 59.104 212.632,58.669 214.543,59.466 215.609 C 60.160 216.538,93.037 216.877,95.189 215.978 C 96.487 215.435,97.532 213.495,103.239 201.029 C 104.405 198.482,105.962 195.163,106.700 193.654 C 115.589 175.454,115.748 176.288,103.321 175.952 C 97.133 175.786,93.100 175.482,88.336 174.826 C 80.418 173.735,78.272 173.687,77.144 174.574 M38.250 257.654 C 35.254 258.024,34.381 259.058,34.749 261.803 C 35.129 264.631,35.917 264.818,47.513 264.831 C 58.816 264.844,60.660 265.469,62.080 269.773 C 63.446 273.913,62.096 274.473,50.086 274.754 L 40.652 274.974 38.493 275.962 C 29.312 280.166,29.268 293.729,38.422 298.075 L 40.309 298.971 54.545 299.083 C 69.853 299.204,71.943 299.096,73.147 298.120 L 73.928 297.487 73.928 283.478 C 73.928 267.683,73.893 267.415,71.367 263.639 C 69.852 261.375,66.160 258.598,63.884 258.011 C 62.424 257.634,40.845 257.333,38.250 257.654 M90.566 257.645 C 84.231 257.939,84.733 256.144,84.755 278.388 C 84.777 300.478,84.449 299.444,91.316 299.027 C 96.704 298.701,96.398 299.736,96.398 281.812 C 96.398 263.695,95.988 264.833,102.503 264.842 C 109.043 264.851,108.704 263.874,108.728 282.762 C 108.752 300.378,108.462 299.730,116.002 299.046 C 120.248 298.661,120.069 299.444,120.069 281.289 C 120.069 263.800,119.750 264.837,125.125 264.837 C 132.100 264.837,132.418 265.607,132.420 282.491 C 132.423 299.564,132.207 298.971,138.422 298.971 C 144.655 298.971,144.427 299.489,144.419 285.345 C 144.410 268.720,143.765 264.832,140.469 261.527 C 137.654 258.704,135.674 257.863,131.561 257.742 C 124.624 257.539,94.390 257.467,90.566 257.645 M160.377 257.629 C 156.538 257.929,155.746 258.515,155.746 261.057 C 155.746 264.458,156.202 264.591,168.611 264.819 C 180.370 265.036,180.381 265.038,182.419 268.062 C 184.114 270.579,183.836 272.995,181.715 274.169 C 181.202 274.452,177.940 274.652,171.527 274.791 C 162.728 274.983,161.956 275.050,160.062 275.795 C 150.390 279.599,150.846 295.539,160.713 298.550 C 162.718 299.162,192.996 299.151,194.067 298.538 C 195.365 297.796,195.537 296.116,195.532 284.220 C 195.526 270.797,195.340 269.085,193.478 265.292 C 191.579 261.421,188.812 259.028,185.075 258.021 C 183.513 257.601,164.593 257.301,160.377 257.629 M258.000 257.672 C 254.348 258.021,254.545 257.176,254.551 272.508 C 254.557 289.680,255.136 292.265,259.842 296.147 C 263.272 298.976,263.239 298.971,278.620 298.971 C 291.579 298.971,291.910 298.954,292.856 298.248 L 293.825 297.525 293.914 278.478 C 294.020 255.578,294.587 257.860,288.749 257.690 C 285.135 257.585,283.443 257.879,282.602 258.757 C 282.562 258.799,282.446 265.815,282.345 274.348 C 282.131 292.405,282.445 291.042,278.361 291.628 C 274.304 292.209,270.133 291.706,268.720 290.465 C 266.030 288.104,266.058 288.279,265.866 272.825 C 265.659 256.169,266.041 256.904,258.000 257.672 M326.682 257.633 L 307.051 257.804 306.270 258.586 L 305.489 259.367 305.489 278.198 L 305.489 297.029 306.302 297.894 C 307.725 299.409,314.252 299.558,316.033 298.117 L 316.810 297.488 316.981 282.029 L 317.153 266.570 317.934 265.790 C 319.131 264.594,327.182 264.594,328.378 265.790 L 329.160 266.571 329.331 281.990 L 329.503 297.409 330.285 298.190 C 331.601 299.503,338.656 299.366,339.827 298.004 L 340.652 297.046 340.652 282.158 C 340.652 264.013,340.417 264.837,345.591 264.837 C 352.825 264.837,353.056 265.404,353.123 283.302 C 353.150 290.788,353.298 297.162,353.449 297.466 C 354.565 299.703,363.431 299.672,364.565 297.427 C 365.614 295.350,365.020 270.191,363.827 266.167 C 362.408 261.385,358.181 258.021,353.259 257.757 C 348.094 257.480,345.525 257.468,326.682 257.633 M207.732 258.447 L 206.861 259.317 206.861 272.338 C 206.861 289.264,207.232 291.363,210.847 294.876 C 214.415 298.344,217.126 299.124,225.654 299.136 C 232.798 299.145,234.916 300.553,231.990 303.345 C 230.459 304.805,229.685 304.915,220.377 304.995 C 208.052 305.101,206.861 305.432,206.861 308.748 C 206.861 312.176,207.878 312.420,221.787 312.331 L 232.419 312.262 235.802 311.163 C 244.707 308.269,245.355 305.967,245.209 277.724 L 245.111 258.944 244.302 258.289 C 243.275 257.457,235.940 257.326,234.893 258.120 C 233.751 258.986,233.619 260.746,233.619 275.184 C 233.619 283.047,233.523 289.731,233.406 290.036 C 232.947 291.234,231.244 291.683,227.071 291.710 C 218.529 291.763,218.189 290.964,218.184 270.793 C 218.181 256.724,218.651 257.854,212.737 257.690 C 208.697 257.579,208.582 257.596,207.732 258.447 M60.752 282.521 C 62.529 283.440,63.235 288.817,61.809 290.578 C 60.563 292.116,47.710 292.345,45.350 290.871 C 42.614 289.163,43.069 284.022,46.078 282.656 C 48.030 281.770,59.103 281.668,60.752 282.521 M182.724 283.082 C 184.224 284.583,184.369 289.097,182.963 290.503 C 181.414 292.052,170.565 292.451,167.212 291.082 C 165.142 290.236,164.311 286.398,165.703 284.114 C 166.880 282.183,167.803 281.985,175.207 282.078 L 181.804 282.161 182.724 283.082 "
              stroke="none" fill="#ee933e" fill-rule="evenodd"></path>
        <path id="path1"
              d="M293.482 130.228 C 291.973 130.493,288.731 131.016,286.278 131.389 C 280.619 132.249,267.766 135.584,266.499 136.521 C 265.839 137.008,265.025 137.221,263.822 137.221 C 260.913 137.221,230.065 147.289,223.769 150.293 C 220.420 151.890,220.215 152.179,217.194 159.534 C 214.742 165.503,211.249 173.203,210.081 175.214 C 208.392 178.121,207.021 176.882,203.005 168.818 C 201.140 165.072,200.253 164.205,196.418 162.376 C 194.808 161.608,193.526 161.938,187.695 164.619 C 185.312 165.715,182.513 166.944,181.475 167.349 C 180.437 167.755,177.159 169.026,174.189 170.173 C 166.637 173.089,166.714 172.911,170.012 179.931 C 171.254 182.573,173.321 187.050,174.607 189.880 C 185.309 213.438,187.351 217.722,188.270 218.554 L 189.250 219.441 199.342 219.668 C 216.572 220.057,225.278 219.970,226.381 219.400 C 227.600 218.770,227.940 218.228,230.264 213.208 C 231.312 210.943,234.718 203.611,237.832 196.913 C 240.945 190.214,245.572 180.257,248.112 174.786 C 250.653 169.314,254.005 162.136,255.563 158.834 C 257.120 155.532,259.079 151.306,259.918 149.444 C 262.036 144.738,264.753 139.372,265.139 139.133 C 266.242 138.452,266.980 139.677,271.953 150.449 C 274.212 155.344,280.812 169.614,286.618 182.161 C 292.424 194.708,298.555 207.985,300.242 211.664 C 302.037 215.580,303.727 218.780,304.319 219.383 L 305.330 220.412 323.190 220.412 C 340.651 220.412,341.061 220.396,341.562 219.726 C 342.528 218.429,342.984 219.566,332.417 196.913 C 327.585 186.554,317.904 165.744,309.437 147.513 C 300.098 127.408,301.413 128.831,293.482 130.228 "
              stroke="none" fill="#545454" fill-rule="evenodd"></path>
        <path id="path2"
              d="M258.921 35.592 C 258.429 36.146,250.952 52.159,246.307 62.607 C 245.216 65.060,243.446 68.919,242.374 71.184 C 233.908 89.055,233.936 89.746,243.009 86.831 C 244.165 86.460,247.196 85.594,249.743 84.907 C 252.290 84.221,255.069 83.426,255.918 83.143 C 257.888 82.484,270.957 80.968,274.786 80.955 C 283.178 80.925,283.231 81.686,273.411 61.063 C 271.479 57.007,268.212 50.060,266.151 45.626 C 261.142 34.850,260.443 33.879,258.921 35.592 "
              stroke="none" fill="#517dbb" fill-rule="evenodd"></path>
    </g>
</svg>