<svg width="128" height="128" viewBox="0 0 128 128" fill="none" xmlns="http://www.w3.org/2000/svg">
  <defs>
    <linearGradient id="grcBg" x1="14" y1="10" x2="114" y2="118" gradientUnits="userSpaceOnUse">
      <stop stop-color="#00EFFF"/>
      <stop offset="0.52" stop-color="#FF5C35"/>
      <stop offset="1" stop-color="#FFD45D"/>
    </linearGradient>
    <linearGradient id="grcDeck" x1="34" y1="30" x2="92" y2="98" gradientUnits="userSpaceOnUse">
      <stop stop-color="#081728"/>
      <stop offset="1" stop-color="#173B62"/>
    </linearGradient>
  </defs>
  <path d="M30 16C43 11 57 8.8 70.4 10.8C84.2 12.8 99 19.4 107 31.7C114.6 43.3 116.9 58 114.1 72.1C111.3 86 103.5 99.5 91.4 106.5C79.4 113.5 64.8 114.9 51.1 112.6C37.8 110.4 24.2 103.4 16.5 91.2C8.8 79 6.8 63.7 9.9 49.4C13 35 17.3 20.8 30 16Z" fill="url(#grcBg)"/>
  <rect x="38" y="23" width="52" height="72" rx="10" fill="url(#grcDeck)"/>
  <rect x="46" y="32" width="36" height="16" rx="6" fill="#0C2135"/>
  <path d="M54 59H74" stroke="#52DFFF" stroke-width="4" stroke-linecap="round"/>
  <path d="M64 53V73" stroke="#52DFFF" stroke-width="4" stroke-linecap="round"/>
  <path d="M52 69L64 81L76 69" stroke="#52DFFF" stroke-width="4" stroke-linecap="round" stroke-linejoin="round"/>
  <path d="M52 40h4c1.4 0 2.5-.3 3.2-1 .8-.7 1.2-1.6 1.2-2.8 0-1.1-.4-2-1.1-2.7-.7-.7-1.8-1-3.1-1h-4.2V31h4.1c1.2 0 2.2-.2 2.8-.6.7-.4 1-1 1-1.9 0-.9-.3-1.5-1-2-.7-.4-1.7-.7-3-.7h-4.1V24h4.3c1.7 0 3 .4 4 1.2 1 .8 1.5 1.8 1.5 3.2 0 .8-.2 1.6-.6 2.2-.4.7-1 1.1-1.7 1.4.9.2 1.6.7 2.1 1.3.5.7.8 1.5.8 2.4 0 1.5-.5 2.7-1.6 3.5-1 .9-2.4 1.3-4.2 1.3H52V40z" fill="#DDF8FF"/>
  <circle cx="34" cy="30" r="4" fill="#081728" fill-opacity="0.82"/>
  <circle cx="96" cy="84" r="4" fill="#081728" fill-opacity="0.86"/>
</svg>
