<svg width="112" height="112" viewBox="0 0 112 112" fill="none" xmlns="http://www.w3.org/2000/svg">
  <defs>
    <linearGradient id="welineDefaultBg" x1="17" y1="14" x2="96" y2="100" gradientUnits="userSpaceOnUse">
      <stop stop-color="#1D4ED8"/>
      <stop offset="0.48" stop-color="#2563EB"/>
      <stop offset="1" stop-color="#0F766E"/>
    </linearGradient>
    <linearGradient id="welineDefaultGlow" x1="31" y1="26" x2="85" y2="86" gradientUnits="userSpaceOnUse">
      <stop stop-color="white" stop-opacity="0.92"/>
      <stop offset="1" stop-color="white" stop-opacity="0.4"/>
    </linearGradient>
  </defs>
  <rect x="8" y="8" width="96" height="96" rx="30" fill="url(#welineDefaultBg)"/>
  <rect x="12.5" y="12.5" width="87" height="87" rx="25.5" stroke="white" stroke-opacity="0.18"/>
  <path d="M27 35.5H35.6L41.85 67.75L49.2 43.6H56.2L63.3 67.75L69.55 35.5H78L68.55 78H60.65L52.55 52.65L44.4 78H36.45L27 35.5Z" fill="white"/>
  <path d="M32 25.5C40 16.9 55.35 13 67.95 17.35C70.85 18.35 73.55 19.75 76 21.5" stroke="url(#welineDefaultGlow)" stroke-width="4.5" stroke-linecap="round"/>
  <circle cx="80.5" cy="23.5" r="4.5" fill="white"/>
  <path d="M79.5 79.5C73.5 86.2 64.45 90 55 90C49.1 90 43.3 88.55 38.15 85.8" stroke="white" stroke-opacity="0.72" stroke-width="4" stroke-linecap="round"/>
</svg>
