<svg width="720" height="560" viewBox="0 0 720 560" xmlns="http://www.w3.org/2000/svg">
  <defs>
    <linearGradient id="panel" x1="0" y1="0" x2="1" y2="1">
      <stop offset="0%" stop-color="#0b223a"/>
      <stop offset="55%" stop-color="#1e4a5c"/>
      <stop offset="100%" stop-color="#0f3a2f"/>
    </linearGradient>
    <linearGradient id="card" x1="0" y1="0" x2="0" y2="1">
      <stop offset="0%" stop-color="#faf8ff"/>
      <stop offset="100%" stop-color="#d9d2f6"/>
    </linearGradient>
    <linearGradient id="gold" x1="0" y1="0" x2="1" y2="1">
      <stop offset="0%" stop-color="#fbd26b"/>
      <stop offset="55%" stop-color="#f59e0b"/>
      <stop offset="100%" stop-color="#cf7a00"/>
    </linearGradient>
    <linearGradient id="violet" x1="0" y1="0" x2="1" y2="1">
      <stop offset="0%" stop-color="#b266ff"/>
      <stop offset="100%" stop-color="#6b2cff"/>
    </linearGradient>
    <radialGradient id="glow" cx="30%" cy="20%" r="60%">
      <stop offset="0%" stop-color="#57d6ff" stop-opacity="0.55"/>
      <stop offset="100%" stop-color="#57d6ff" stop-opacity="0"/>
    </radialGradient>
    <filter id="shadow" x="-40%" y="-40%" width="180%" height="180%">
      <feDropShadow dx="0" dy="18" stdDeviation="18" flood-color="#0a041f" flood-opacity="0.5"/>
    </filter>
  </defs>

  <rect width="720" height="560" rx="32" fill="url(#panel)"/>
  <circle cx="170" cy="120" r="180" fill="url(#glow)"/>
  <circle cx="560" cy="420" r="180" fill="url(#glow)" opacity="0.6"/>

  <g filter="url(#shadow)">
    <rect x="110" y="130" width="230" height="320" rx="20" fill="url(#card)"/>
    <rect x="190" y="100" width="230" height="320" rx="20" fill="url(#card)" opacity="0.96"/>
    <rect x="270" y="140" width="230" height="320" rx="20" fill="url(#card)" opacity="0.92"/>
  </g>

  <g transform="translate(215 180)" fill="#7d1b2b" opacity="0.9">
    <path d="M20 8c-7 0-12 6-12 13 0 8 7 15 12 21 5-6 12-13 12-21 0-7-5-13-12-13z"/>
    <path d="M20 52c-6-6-12-13-18-20l18 28 18-28c-6 7-12 14-18 20z"/>
  </g>
  <g transform="translate(305 220)" fill="#101d4f" opacity="0.9">
    <path d="M18 0c-7 0-14 6-14 14 0 7 6 13 14 20 8-7 14-13 14-20 0-8-7-14-14-14z"/>
    <path d="M18 36c-6-6-12-11-14-17l14 28 14-28c-2 6-8 11-14 17z"/>
  </g>
  <g transform="translate(385 160)" fill="#0f6b3f" opacity="0.9">
    <path d="M18 4c-8 0-14 7-14 15 0 7 6 13 14 20 8-7 14-13 14-20 0-8-6-15-14-15z"/>
    <path d="M18 40c-6-6-12-11-14-17l14 28 14-28c-2 6-8 11-14 17z"/>
    <rect x="16" y="40" width="4" height="12" rx="2"/>
  </g>

  <g transform="translate(470 260)">
    <circle cx="0" cy="0" r="92" fill="url(#gold)"/>
    <circle cx="0" cy="0" r="70" fill="none" stroke="#fff3c4" stroke-width="10" stroke-dasharray="18 10"/>
    <circle cx="0" cy="0" r="50" fill="none" stroke="#fff9e6" stroke-width="6"/>
    <circle cx="0" cy="0" r="12" fill="#fff9e6"/>
  </g>

  <g transform="translate(460 110)">
    <path d="M0 34 L18 10 L36 34 L54 10 L72 34 L72 52 L0 52 Z" fill="url(#gold)"/>
    <rect x="12" y="52" width="48" height="10" rx="5" fill="#f7e5a3"/>
  </g>

  <g transform="translate(430 310)">
    <circle cx="0" cy="0" r="86" fill="none" stroke="url(#violet)" stroke-width="6" opacity="0.6"/>
    <text x="0" y="10" text-anchor="middle" font-size="56" font-weight="800" fill="#fef5d5" font-family="Arial, sans-serif">TP</text>
  </g>

  <g opacity="0.25">
    <circle cx="130" cy="440" r="6" fill="#ffffff"/>
    <circle cx="170" cy="470" r="8" fill="#ffffff"/>
    <circle cx="210" cy="430" r="5" fill="#ffffff"/>
    <circle cx="520" cy="120" r="7" fill="#ffffff"/>
    <circle cx="560" cy="90" r="5" fill="#ffffff"/>
    <circle cx="600" cy="140" r="6" fill="#ffffff"/>
  </g>
</svg>
