<svg width="1920" height="1080" viewBox="0 0 1920 1080" xmlns="http://www.w3.org/2000/svg">
  <defs>
    <linearGradient id="bg" x1="0" y1="0" x2="1" y2="1">
      <stop offset="0%" stop-color="#1b0a3b"/>
      <stop offset="45%" stop-color="#3a0f6d"/>
      <stop offset="100%" stop-color="#0b1a3a"/>
    </linearGradient>
    <radialGradient id="glow-1" cx="25%" cy="20%" r="45%">
      <stop offset="0%" stop-color="#a15bff" stop-opacity="0.6"/>
      <stop offset="100%" stop-color="#a15bff" stop-opacity="0"/>
    </radialGradient>
    <radialGradient id="glow-2" cx="70%" cy="65%" r="50%">
      <stop offset="0%" stop-color="#ff8bd8" stop-opacity="0.45"/>
      <stop offset="100%" stop-color="#ff8bd8" stop-opacity="0"/>
    </radialGradient>
    <radialGradient id="glow-3" cx="88%" cy="28%" r="40%">
      <stop offset="0%" stop-color="#58c7ff" stop-opacity="0.35"/>
      <stop offset="100%" stop-color="#58c7ff" stop-opacity="0"/>
    </radialGradient>
    <filter id="blur-80" x="-50%" y="-50%" width="200%" height="200%">
      <feGaussianBlur stdDeviation="80"/>
    </filter>
    <filter id="blur-40" x="-50%" y="-50%" width="200%" height="200%">
      <feGaussianBlur stdDeviation="40"/>
    </filter>
    <filter id="blur-12" x="-50%" y="-50%" width="200%" height="200%">
      <feGaussianBlur stdDeviation="12"/>
    </filter>
  </defs>

  <rect width="1920" height="1080" fill="url(#bg)"/>

  <circle cx="420" cy="220" r="380" fill="url(#glow-1)" filter="url(#blur-80)"/>
  <circle cx="1320" cy="760" r="420" fill="url(#glow-2)" filter="url(#blur-80)"/>
  <circle cx="1700" cy="300" r="320" fill="url(#glow-3)" filter="url(#blur-80)"/>

  <path d="M-40 110 C 240 10 520 30 800 150 C 1080 270 1420 270 1960 120 L1960 0 L-40 0 Z"
        fill="#6e2cff" opacity="0.35"/>
  <path d="M-40 650 C 260 520 620 520 980 660 C 1340 800 1640 880 1960 760 L1960 1080 L-40 1080 Z"
        fill="#2d0a5e" opacity="0.55"/>

  <g opacity="0.22">
    <rect x="240" y="520" width="190" height="260" rx="16" fill="none" stroke="#ffffff" stroke-width="3"
          transform="rotate(-12 335 650)"/>
    <rect x="300" y="540" width="190" height="260" rx="16" fill="none" stroke="#ffd36b" stroke-width="3"
          transform="rotate(-12 395 670)"/>
    <rect x="1470" y="260" width="170" height="240" rx="14" fill="none" stroke="#ffffff" stroke-width="3"
          transform="rotate(16 1555 380)"/>
  </g>

  <g opacity="0.25">
    <circle cx="1360" cy="780" r="120" fill="none" stroke="#f8d36b" stroke-width="6" stroke-dasharray="14 10"/>
    <circle cx="1360" cy="780" r="90" fill="none" stroke="#ffffff" stroke-width="4" stroke-dasharray="10 8"/>
    <circle cx="1560" cy="640" r="60" fill="none" stroke="#ff8bd8" stroke-width="4" stroke-dasharray="8 6"/>
  </g>

  <g opacity="0.35" filter="url(#blur-12)">
    <circle cx="1240" cy="220" r="26" fill="#ffd36b"/>
    <circle cx="1320" cy="260" r="18" fill="#ffd36b"/>
    <circle cx="1400" cy="210" r="22" fill="#ffd36b"/>
    <circle cx="1530" cy="260" r="28" fill="#ff8bd8"/>
    <circle cx="1620" cy="320" r="24" fill="#ffd36b"/>
  </g>

  <g opacity="0.18">
    <circle cx="520" cy="860" r="10" fill="#ffffff"/>
    <circle cx="600" cy="820" r="8" fill="#ffffff"/>
    <circle cx="700" cy="900" r="12" fill="#ffffff"/>
    <circle cx="820" cy="860" r="9" fill="#ffffff"/>
    <circle cx="940" cy="920" r="10" fill="#ffffff"/>
  </g>
</svg>
