<svg width="128" height="128" viewBox="0 0 128 128" xmlns="http://www.w3.org/2000/svg">
  <defs>
    <linearGradient id="bg" x1="0" y1="0" x2="1" y2="1">
      <stop offset="0%" stop-color="#12c2e9"/>
      <stop offset="55%" stop-color="#3a7bd5"/>
      <stop offset="100%" stop-color="#1b3b7f"/>
    </linearGradient>
    <linearGradient id="gold" x1="0" y1="0" x2="1" y2="1">
      <stop offset="0%" stop-color="#fbd26b"/>
      <stop offset="55%" stop-color="#f59e0b"/>
      <stop offset="100%" stop-color="#cf7a00"/>
    </linearGradient>
    <filter id="shadow" x="-40%" y="-40%" width="180%" height="180%">
      <feDropShadow dx="0" dy="6" stdDeviation="6" flood-color="#0a041f" flood-opacity="0.35"/>
    </filter>
  </defs>

  <circle cx="64" cy="64" r="56" fill="url(#bg)"/>
  <circle cx="64" cy="64" r="52" fill="none" stroke="url(#gold)" stroke-width="6" stroke-dasharray="10 6"/>

  <g filter="url(#shadow)">
    <rect x="28" y="34" width="36" height="54" rx="6" fill="#f9f6ff"/>
    <rect x="42" y="30" width="36" height="54" rx="6" fill="#f1ecff"/>
    <rect x="56" y="36" width="36" height="54" rx="6" fill="#e7e0ff"/>
  </g>

  <g transform="translate(44 46)" fill="#8b1b3a">
    <path d="M8 2c-3 0-6 3-6 7 0 4 3 7 6 11 3-4 6-7 6-11 0-4-3-7-6-7z"/>
    <path d="M8 24c-3-3-6-6-8-9l8 13 8-13c-2 3-5 6-8 9z"/>
  </g>

  <g transform="translate(64 72)">
    <circle cx="0" cy="0" r="20" fill="url(#gold)"/>
    <circle cx="0" cy="0" r="14" fill="none" stroke="#fff3c4" stroke-width="3" stroke-dasharray="6 4"/>
    <text x="0" y="5" text-anchor="middle" font-size="12" font-weight="800" fill="#3b1f00" font-family="Arial, sans-serif">TP</text>
  </g>
</svg>
