<svg width="96" height="96" viewBox="0 0 96 96" fill="none" xmlns="http://www.w3.org/2000/svg" role="img" aria-label="Wildfire download icon">
  <defs>
    <linearGradient id="wildfireOrb" x1="18" y1="14" x2="80" y2="84" gradientUnits="userSpaceOnUse">
      <stop stop-color="#FFF4D8"/>
      <stop offset="0.48" stop-color="#FFB347"/>
      <stop offset="1" stop-color="#F25F3A"/>
    </linearGradient>
    <radialGradient id="wildfireGlow" cx="0" cy="0" r="1" gradientUnits="userSpaceOnUse" gradientTransform="translate(48 48) rotate(90) scale(42)">
      <stop stop-color="#08E7D8" stop-opacity="0.34"/>
      <stop offset="1" stop-color="#08E7D8" stop-opacity="0"/>
    </radialGradient>
    <linearGradient id="wildfirePhone" x1="48" y1="24" x2="48" y2="72" gradientUnits="userSpaceOnUse">
      <stop stop-color="#291420"/>
      <stop offset="1" stop-color="#120A13"/>
    </linearGradient>
    <linearGradient id="wildfireArrow" x1="48" y1="34" x2="48" y2="61" gradientUnits="userSpaceOnUse">
      <stop stop-color="#FFF8EF"/>
      <stop offset="1" stop-color="#C7FF41"/>
    </linearGradient>
  </defs>

  <circle cx="48" cy="48" r="44" fill="url(#wildfireOrb)"/>
  <circle cx="48" cy="48" r="36" fill="url(#wildfireGlow)"/>
  <path d="M17 52C17 30.6 31.8 16 52.2 16" stroke="#FFF9F1" stroke-opacity="0.56" stroke-width="2.2" stroke-linecap="round" stroke-dasharray="4 6"/>
  <path d="M79 44C79 65.4 64.2 80 43.8 80" stroke="#08E7D8" stroke-opacity="0.72" stroke-width="2.2" stroke-linecap="round" stroke-dasharray="4 6"/>

  <rect x="30" y="22" width="36" height="52" rx="12" fill="url(#wildfirePhone)"/>
  <rect x="34" y="27" width="28" height="36" rx="8" fill="#2B1A27"/>
  <circle cx="48" cy="68" r="2.8" fill="#FFB347"/>

  <path d="M48 36V53" stroke="url(#wildfireArrow)" stroke-width="4.6" stroke-linecap="round"/>
  <path d="M40.5 48.5L48 56L55.5 48.5" stroke="url(#wildfireArrow)" stroke-width="4.6" stroke-linecap="round" stroke-linejoin="round"/>

  <circle cx="24" cy="34" r="3" fill="#FFF8EF" fill-opacity="0.78"/>
  <circle cx="71" cy="24" r="2.5" fill="#08E7D8" fill-opacity="0.9"/>
  <circle cx="73" cy="68" r="3.5" fill="#C7FF41" fill-opacity="0.84"/>
</svg>
