<svg width="880" height="620" viewBox="0 0 880 620" fill="none" xmlns="http://www.w3.org/2000/svg">
  <defs>
    <linearGradient id="bg2" x1="50" y1="38" x2="808" y2="566" gradientUnits="userSpaceOnUse">
      <stop stop-color="#FFF5DE"/>
      <stop offset="1" stop-color="#E0FBF7"/>
    </linearGradient>
    <linearGradient id="panel2" x1="140" y1="118" x2="736" y2="496" gradientUnits="userSpaceOnUse">
      <stop stop-color="#FFFFFF" stop-opacity="0.94"/>
      <stop offset="1" stop-color="#F5FFFD" stop-opacity="0.84"/>
    </linearGradient>
  </defs>
  <rect width="880" height="620" rx="30" fill="url(#bg2)"/>
  <rect x="48" y="44" width="784" height="532" rx="28" fill="url(#panel2)" stroke="rgba(20,76,84,0.1)"/>
  <ellipse cx="440" cy="330" rx="244" ry="118" fill="#D7FAF5"/>
  <ellipse cx="440" cy="330" rx="214" ry="96" fill="#52C9C1" fill-opacity="0.4"/>
  <rect x="256" y="190" width="112" height="160" rx="18" fill="#FFFDF8"/>
  <rect x="386" y="170" width="112" height="160" rx="18" fill="#FFFDF8"/>
  <rect x="516" y="190" width="112" height="160" rx="18" fill="#FFFDF8"/>
  <circle cx="312" cy="256" r="24" fill="#FFD978"/>
  <circle cx="442" cy="236" r="24" fill="#48C8BF"/>
  <circle cx="572" cy="256" r="24" fill="#9ACBFF"/>
  <path d="M118 120H428" stroke="#1F6069" stroke-width="3" stroke-linecap="round" opacity="0.24"/>
  <text x="118" y="104" fill="#17444B" font-size="44" font-family="Arial, Helvetica, sans-serif" font-weight="700">Teen Patti Live</text>
  <text x="118" y="470" fill="#50777E" font-size="26" font-family="Arial, Helvetica, sans-serif">Bright dealer table  ·  Quick glance card reading</text>
  <circle cx="664" cy="448" r="44" fill="#FFE7A9"/>
  <circle cx="664" cy="448" r="28" fill="#1B4A51"/>
  <circle cx="664" cy="448" r="16" fill="#FFE7A9"/>
</svg>
