<svg width="880" height="620" viewBox="0 0 880 620" fill="none" xmlns="http://www.w3.org/2000/svg">
  <defs>
    <linearGradient id="bg3" x1="84" y1="44" x2="814" y2="562" gradientUnits="userSpaceOnUse">
      <stop stop-color="#EAFDFA"/>
      <stop offset="1" stop-color="#EFF5FF"/>
    </linearGradient>
  </defs>
  <rect width="880" height="620" rx="30" fill="url(#bg3)"/>
  <rect x="70" y="68" width="740" height="484" rx="34" fill="#FFFFFF" fill-opacity="0.84" stroke="rgba(23,68,75,0.08)"/>
  <path d="M168 432C222 354 306 292 438 292C570 292 654 354 712 432" stroke="#59C7BF" stroke-opacity="0.42" stroke-width="18" stroke-linecap="round"/>
  <path d="M214 432C266 374 332 338 438 338C544 338 610 374 662 432" stroke="#8DC9FF" stroke-opacity="0.52" stroke-width="10" stroke-linecap="round"/>
  <rect x="246" y="176" width="144" height="196" rx="22" fill="#FFFDF8"/>
  <rect x="490" y="176" width="144" height="196" rx="22" fill="#F7FFFC"/>
  <circle cx="318" cy="262" r="30" fill="#59C7BF"/>
  <circle cx="562" cy="262" r="30" fill="#FFD978"/>
  <circle cx="438" cy="448" r="58" fill="#9ADCD7" fill-opacity="0.74"/>
  <circle cx="438" cy="448" r="36" fill="#1E5961"/>
  <circle cx="438" cy="448" r="18" fill="#9ADCD7"/>
  <text x="118" y="122" fill="#17444B" font-size="44" font-family="Arial, Helvetica, sans-serif" font-weight="700">Rummy Circle</text>
  <text x="118" y="486" fill="#547A81" font-size="26" font-family="Arial, Helvetica, sans-serif">Orderly hands  ·  Calm progression  ·  Clear grouping</text>
</svg>
